<svg height="512" viewBox="0 0 64 64" width="512" xmlns="http://www.w3.org/2000/svg"><g id="worldwide-global-network-connection-meeting"><path d="m46 32h-8a29.469 29.469 0 0 0 -.8-7 14.09 14.09 0 0 0 4.59-3 13.931 13.931 0 0 1 4.21 10z" fill="#2488ff"/><path d="m38 32h8a13.931 13.931 0 0 1 -4.21 10 14.09 14.09 0 0 0 -4.59-3 29.469 29.469 0 0 0 .8-7z" fill="#57a4ff"/><path d="m38 32h-12a29.469 29.469 0 0 1 .8-7 14.02 14.02 0 0 0 10.4 0 29.469 29.469 0 0 1 .8 7z" fill="#57a4ff"/><path d="m26 32h12a29.469 29.469 0 0 1 -.8 7 14.02 14.02 0 0 0 -10.4 0 29.469 29.469 0 0 1 -.8-7z" fill="#2488ff"/><path d="m32 18a13.971 13.971 0 0 1 9.79 4 14.09 14.09 0 0 1 -4.59 3c-1.04-4.19-2.98-7-5.2-7z" fill="#57a4ff"/><path d="m37.2 39a14.09 14.09 0 0 1 4.59 3 13.971 13.971 0 0 1 -9.79 4c2.22 0 4.16-2.81 5.2-7z" fill="#2488ff"/><path d="m32 18c2.22 0 4.16 2.81 5.2 7a14.02 14.02 0 0 1 -10.4 0c1.04-4.19 2.98-7 5.2-7z" fill="#2488ff"/><path d="m37.2 39c-1.04 4.19-2.98 7-5.2 7s-4.16-2.81-5.2-7a14.02 14.02 0 0 1 10.4 0z" fill="#57a4ff"/><path d="m32 18c-2.22 0-4.16 2.81-5.2 7a14.09 14.09 0 0 1 -4.59-3 13.971 13.971 0 0 1 9.79-4z" fill="#57a4ff"/><path d="m26.8 39c1.04 4.19 2.98 7 5.2 7a13.971 13.971 0 0 1 -9.79-4 14.09 14.09 0 0 1 4.59-3z" fill="#2488ff"/><path d="m22.21 22a14.09 14.09 0 0 0 4.59 3 29.469 29.469 0 0 0 -.8 7h-8a13.931 13.931 0 0 1 4.21-10z" fill="#2488ff"/><path d="m26.8 39a14.09 14.09 0 0 0 -4.59 3 13.931 13.931 0 0 1 -4.21-10h8a29.469 29.469 0 0 0 .8 7z" fill="#57a4ff"/><circle cx="13" cy="13" fill="#bdfdff" r="10"/><path d="m23 13a10 10 0 0 1 -11.99 9.8 10.005 10.005 0 0 0 0-19.6 10 10 0 0 1 11.99 9.8z" fill="#00e7f0"/><path d="m19 19v2h-.01a9.9 9.9 0 0 1 -5.99 2c-.34 0-.67-.02-1-.05a9.921 9.921 0 0 1 -4-1.29 9.6 9.6 0 0 1 -1-.66v-2a4 4 0 0 1 4-4h4a4 4 0 0 1 4 4z" fill="#91dc5a"/><path d="m16 10v2a3 3 0 0 1 -6 0v-2a3 3 0 0 1 6 0z" fill="#ffc477"/><path d="m19 19v2h-.01a9.9 9.9 0 0 1 -5.99 2c-.34 0-.67-.02-1-.05-.17-.02-.35-.04-.52-.07a9.751 9.751 0 0 0 4.51-1.88h.01v-2a4 4 0 0 0 -4-4h3a4 4 0 0 1 4 4z" fill="#5eac24"/><path d="m16 10v2a3 3 0 0 1 -4.5 2.6 3 3 0 0 0 1.5-2.6v-2a2.993 2.993 0 0 0 -.88-2.12 3.3 3.3 0 0 0 -.62-.48 3.026 3.026 0 0 1 1.5-.4 3 3 0 0 1 3 3z" fill="#ffa733"/><circle cx="51" cy="13" fill="#bdfdff" r="10"/><path d="m61 13a10 10 0 0 1 -11.99 9.8 10.005 10.005 0 0 0 0-19.6 10 10 0 0 1 11.99 9.8z" fill="#00e7f0"/><path d="m57 19v2h-.01a9.9 9.9 0 0 1 -5.99 2c-.34 0-.67-.02-1-.05a9.921 9.921 0 0 1 -4-1.29 9.6 9.6 0 0 1 -1-.66v-2a4 4 0 0 1 4-4h4a4 4 0 0 1 4 4z" fill="#ffde55"/><path d="m54 10v2a3 3 0 0 1 -6 0v-2a3 3 0 0 1 6 0z" fill="#ffc477"/><path d="m57 19v2h-.01a9.9 9.9 0 0 1 -5.99 2c-.34 0-.67-.02-1-.05-.17-.02-.35-.04-.52-.07a9.751 9.751 0 0 0 4.51-1.88h.01v-2a4 4 0 0 0 -4-4h3a4 4 0 0 1 4 4z" fill="#ebbf00"/><path d="m54 10v2a3 3 0 0 1 -4.5 2.6 3 3 0 0 0 1.5-2.6v-2a2.993 2.993 0 0 0 -.88-2.12 3.3 3.3 0 0 0 -.62-.48 3.026 3.026 0 0 1 1.5-.4 3 3 0 0 1 3 3z" fill="#ffa733"/><circle cx="13" cy="51" fill="#bdfdff" r="10"/><path d="m23 51a10 10 0 0 1 -11.99 9.8 10.005 10.005 0 0 0 0-19.6 10 10 0 0 1 11.99 9.8z" fill="#00e7f0"/><path d="m19 57v2h-.01a9.9 9.9 0 0 1 -5.99 2c-.34 0-.67-.02-1-.05a9.921 9.921 0 0 1 -4-1.29 9.6 9.6 0 0 1 -1-.66v-2a4 4 0 0 1 4-4h4a4 4 0 0 1 4 4z" fill="#ff3051"/><path d="m16 48v2a3 3 0 0 1 -6 0v-2a3 3 0 0 1 6 0z" fill="#ffc477"/><path d="m19 57v2h-.01a9.9 9.9 0 0 1 -5.99 2c-.34 0-.67-.02-1-.05-.17-.02-.35-.04-.52-.07a9.751 9.751 0 0 0 4.51-1.88h.01v-2a4 4 0 0 0 -4-4h3a4 4 0 0 1 4 4z" fill="#cd2a00"/><path d="m16 48v2a3 3 0 0 1 -4.5 2.6 3 3 0 0 0 1.5-2.6v-2a2.993 2.993 0 0 0 -.88-2.12 3.3 3.3 0 0 0 -.62-.48 3.026 3.026 0 0 1 1.5-.4 3 3 0 0 1 3 3z" fill="#ffa733"/><circle cx="51" cy="51" fill="#bdfdff" r="10"/><path d="m61 51a10 10 0 0 1 -11.99 9.8 10.005 10.005 0 0 0 0-19.6 10 10 0 0 1 11.99 9.8z" fill="#00e7f0"/><path d="m57 57v2h-.01a9.9 9.9 0 0 1 -5.99 2c-.34 0-.67-.02-1-.05a9.921 9.921 0 0 1 -4-1.29 9.6 9.6 0 0 1 -1-.66v-2a4 4 0 0 1 4-4h4a4 4 0 0 1 4 4z" fill="#57a4ff"/><path d="m54 48v2a3 3 0 0 1 -6 0v-2a3 3 0 0 1 6 0z" fill="#ffc477"/><path d="m57 57v2h-.01a9.9 9.9 0 0 1 -5.99 2c-.34 0-.67-.02-1-.05-.17-.02-.35-.04-.52-.07a9.751 9.751 0 0 0 4.51-1.88h.01v-2a4 4 0 0 0 -4-4h3a4 4 0 0 1 4 4z" fill="#006df0"/><path d="m54 48v2a3 3 0 0 1 -4.5 2.6 3 3 0 0 0 1.5-2.6v-2a2.993 2.993 0 0 0 -.88-2.12 3.3 3.3 0 0 0 -.62-.48 3.026 3.026 0 0 1 1.5-.4 3 3 0 0 1 3 3z" fill="#ffa733"/><path d="m42.49 21.28a15 15 0 1 0 4.51 10.72 14.958 14.958 0 0 0 -4.51-10.72zm2.46 9.72h-5.97a30.925 30.925 0 0 0 -.62-5.43 15.556 15.556 0 0 0 3.36-2.17 12.779 12.779 0 0 1 3.23 7.6zm-4.66-9a13.191 13.191 0 0 1 -2.43 1.59 14.7 14.7 0 0 0 -1.78-3.92 13.01 13.01 0 0 1 4.21 2.33zm-13.27 9a29.8 29.8 0 0 1 .51-4.69 14.824 14.824 0 0 0 8.94 0 29.8 29.8 0 0 1 .51 4.69zm9.96 2a29.8 29.8 0 0 1 -.51 4.69 14.824 14.824 0 0 0 -8.94 0 29.8 29.8 0 0 1 -.51-4.69zm-4.98-14c1.45 0 3.01 2.03 3.99 5.36a12.758 12.758 0 0 1 -7.98 0c.98-3.33 2.54-5.36 3.99-5.36zm-4.08.67a14.7 14.7 0 0 0 -1.78 3.92 13.191 13.191 0 0 1 -2.43-1.59 13.01 13.01 0 0 1 4.21-2.33zm-5.64 3.73a15.556 15.556 0 0 0 3.36 2.17 30.925 30.925 0 0 0 -.62 5.43h-5.97a12.779 12.779 0 0 1 3.23-7.6zm-3.23 9.6h5.97a30.925 30.925 0 0 0 .62 5.43 15.556 15.556 0 0 0 -3.36 2.17 12.779 12.779 0 0 1 -3.23-7.6zm4.67 9a12.791 12.791 0 0 1 2.42-1.59 14.7 14.7 0 0 0 1.78 3.92 12.861 12.861 0 0 1 -4.2-2.33zm8.28 3c-1.45 0-3.01-2.03-3.99-5.36a12.758 12.758 0 0 1 7.98 0c-.98 3.33-2.54 5.36-3.99 5.36zm4.08-.67a14.7 14.7 0 0 0 1.78-3.92 13.191 13.191 0 0 1 2.43 1.59 13.01 13.01 0 0 1 -4.21 2.33zm5.64-3.73a15.556 15.556 0 0 0 -3.36-2.17 30.925 30.925 0 0 0 .62-5.43h5.97a12.779 12.779 0 0 1 -3.23 7.6z"/><path d="m27 11h2v2h-2z"/><path d="m31 11h2v2h-2z"/><path d="m35 11h2v2h-2z"/><path d="m27 51h2v2h-2z"/><path d="m31 51h2v2h-2z"/><path d="m35 51h2v2h-2z"/><path d="m11 27h2v2h-2z"/><path d="m11 31h2v2h-2z"/><path d="m11 35h2v2h-2z"/><path d="m51 27h2v2h-2z"/><path d="m51 31h2v2h-2z"/><path d="m51 35h2v2h-2z"/><path d="m13 2a11 11 0 1 0 11 11 11.007 11.007 0 0 0 -11-11zm5 18.48a8.984 8.984 0 0 1 -10 0v-1.48a3.009 3.009 0 0 1 3-3h4a3.009 3.009 0 0 1 3 3zm-7-8.48v-2a2 2 0 0 1 4 0v2a2 2 0 0 1 -4 0zm8.97 6.69a5 5 0 0 0 -3.64-4.49 3.965 3.965 0 0 0 .67-2.2v-2a4 4 0 0 0 -8 0v2a3.965 3.965 0 0 0 .67 2.2 5 5 0 0 0 -3.64 4.49 9 9 0 1 1 13.94 0z"/><path d="m51 2a11 11 0 1 0 11 11 11.007 11.007 0 0 0 -11-11zm5 18.48a8.984 8.984 0 0 1 -10 0v-1.48a3.009 3.009 0 0 1 3-3h4a3.009 3.009 0 0 1 3 3zm-7-8.48v-2a2 2 0 0 1 4 0v2a2 2 0 0 1 -4 0zm8.97 6.69a5 5 0 0 0 -3.64-4.49 3.965 3.965 0 0 0 .67-2.2v-2a4 4 0 0 0 -8 0v2a3.965 3.965 0 0 0 .67 2.2 5 5 0 0 0 -3.64 4.49 9 9 0 1 1 13.94 0z"/><path d="m13 40a11 11 0 1 0 11 11 11.007 11.007 0 0 0 -11-11zm5 18.48a8.984 8.984 0 0 1 -10 0v-1.48a3.009 3.009 0 0 1 3-3h4a3.009 3.009 0 0 1 3 3zm-7-8.48v-2a2 2 0 0 1 4 0v2a2 2 0 0 1 -4 0zm8.97 6.69a5 5 0 0 0 -3.64-4.49 3.965 3.965 0 0 0 .67-2.2v-2a4 4 0 0 0 -8 0v2a3.965 3.965 0 0 0 .67 2.2 5 5 0 0 0 -3.64 4.49 9 9 0 1 1 13.94 0z"/><path d="m51 40a11 11 0 1 0 11 11 11.007 11.007 0 0 0 -11-11zm5 18.48a8.984 8.984 0 0 1 -10 0v-1.48a3.009 3.009 0 0 1 3-3h4a3.009 3.009 0 0 1 3 3zm-7-8.48v-2a2 2 0 0 1 4 0v2a2 2 0 0 1 -4 0zm8.97 6.69a5 5 0 0 0 -3.64-4.49 3.965 3.965 0 0 0 .67-2.2v-2a4 4 0 0 0 -8 0v2a3.965 3.965 0 0 0 .67 2.2 5 5 0 0 0 -3.64 4.49 9 9 0 1 1 13.94 0z"/></g></svg>