<svg width="254" height="219" viewBox="0 0 254 219" fill="none" xmlns="http://www.w3.org/2000/svg">
<rect x="54.5" y="2.5" width="145" height="145" fill="black" stroke="white" stroke-width="5"/>
<rect x="79.5" y="27.5" width="95" height="95" fill="white" stroke="white" stroke-width="5"/>

<path d="M100.266 76.2109L114.094 81.4609V87.1562L94.4766 78.4141V73.8906L114.094 65.1719V70.8672L100.266 76.2109ZM121.945 93.9297H117.469L130.898 56.875H135.375L121.945 93.9297ZM153.891 76.0938L139.406 70.7734V65.1719L159.656 73.8906V78.4141L139.406 87.1328V81.5312L153.891 76.0938Z" fill="black"/>
<path d="M14.2734 215.438C8.75781 213.891 5.94531 210.367 5.83594 204.867V199.875C5.83594 196.359 4.32812 194.602 1.3125 194.602V190.43C4.32812 190.43 5.83594 188.664 5.83594 185.133V180.164C5.88281 177.352 6.60938 175.078 8.01562 173.344C9.4375 171.609 11.5234 170.352 14.2734 169.57L15.3984 172.852C12.6953 173.727 11.2969 176.117 11.2031 180.023V185.086C11.2031 188.602 9.85156 191.07 7.14844 192.492C9.85156 193.93 11.2031 196.422 11.2031 199.969V204.961C11.2969 208.867 12.6953 211.258 15.3984 212.133L14.2734 215.438ZM43.5703 199.57L52.2422 172.875H58.7578L46.4766 207H40.7344L28.5 172.875H34.9922L43.5703 199.57ZM76.1484 207C75.8984 206.516 75.6797 205.727 75.4922 204.633C73.6797 206.523 71.4609 207.469 68.8359 207.469C66.2891 207.469 64.2109 206.742 62.6016 205.289C60.9922 203.836 60.1875 202.039 60.1875 199.898C60.1875 197.195 61.1875 195.125 63.1875 193.688C65.2031 192.234 68.0781 191.508 71.8125 191.508H75.3047V189.844C75.3047 188.531 74.9375 187.484 74.2031 186.703C73.4688 185.906 72.3516 185.508 70.8516 185.508C69.5547 185.508 68.4922 185.836 67.6641 186.492C66.8359 187.133 66.4219 187.953 66.4219 188.953H60.7266C60.7266 187.562 61.1875 186.266 62.1094 185.062C63.0312 183.844 64.2812 182.891 65.8594 182.203C67.4531 181.516 69.2266 181.172 71.1797 181.172C74.1484 181.172 76.5156 181.922 78.2812 183.422C80.0469 184.906 80.9531 187 81 189.703V201.141C81 203.422 81.3203 205.242 81.9609 206.602V207H76.1484ZM69.8906 202.898C71.0156 202.898 72.0703 202.625 73.0547 202.078C74.0547 201.531 74.8047 200.797 75.3047 199.875V195.094H72.2344C70.125 195.094 68.5391 195.461 67.4766 196.195C66.4141 196.93 65.8828 197.969 65.8828 199.312C65.8828 200.406 66.2422 201.281 66.9609 201.938C67.6953 202.578 68.6719 202.898 69.8906 202.898ZM92.25 181.641L92.4141 184.57C94.2891 182.305 96.75 181.172 99.7969 181.172C105.078 181.172 107.766 184.195 107.859 190.242V207H102.164V190.57C102.164 188.961 101.812 187.773 101.109 187.008C100.422 186.227 99.2891 185.836 97.7109 185.836C95.4141 185.836 93.7031 186.875 92.5781 188.953V207H86.8828V181.641H92.25ZM127.898 200.109C127.898 199.094 127.477 198.32 126.633 197.789C125.805 197.258 124.422 196.789 122.484 196.383C120.547 195.977 118.93 195.461 117.633 194.836C114.789 193.461 113.367 191.469 113.367 188.859C113.367 186.672 114.289 184.844 116.133 183.375C117.977 181.906 120.32 181.172 123.164 181.172C126.195 181.172 128.641 181.922 130.5 183.422C132.375 184.922 133.312 186.867 133.312 189.258H127.617C127.617 188.164 127.211 187.258 126.398 186.539C125.586 185.805 124.508 185.438 123.164 185.438C121.914 185.438 120.891 185.727 120.094 186.305C119.312 186.883 118.922 187.656 118.922 188.625C118.922 189.5 119.289 190.18 120.023 190.664C120.758 191.148 122.242 191.641 124.477 192.141C126.711 192.625 128.461 193.211 129.727 193.898C131.008 194.57 131.953 195.383 132.562 196.336C133.188 197.289 133.5 198.445 133.5 199.805C133.5 202.086 132.555 203.938 130.664 205.359C128.773 206.766 126.297 207.469 123.234 207.469C121.156 207.469 119.305 207.094 117.68 206.344C116.055 205.594 114.789 204.562 113.883 203.25C112.977 201.938 112.523 200.523 112.523 199.008H118.055C118.133 200.352 118.641 201.391 119.578 202.125C120.516 202.844 121.758 203.203 123.305 203.203C124.805 203.203 125.945 202.922 126.727 202.359C127.508 201.781 127.898 201.031 127.898 200.109ZM144.094 184.406C145.953 182.25 148.305 181.172 151.148 181.172C156.555 181.172 159.297 184.258 159.375 190.43V207H153.68V190.641C153.68 188.891 153.297 187.656 152.531 186.938C151.781 186.203 150.672 185.836 149.203 185.836C146.922 185.836 145.219 186.852 144.094 188.883V207H138.398V171H144.094V184.406ZM171.211 207H165.516V181.641H171.211V207ZM165.164 175.055C165.164 174.18 165.438 173.453 165.984 172.875C166.547 172.297 167.344 172.008 168.375 172.008C169.406 172.008 170.203 172.297 170.766 172.875C171.328 173.453 171.609 174.18 171.609 175.055C171.609 175.914 171.328 176.633 170.766 177.211C170.203 177.773 169.406 178.055 168.375 178.055C167.344 178.055 166.547 177.773 165.984 177.211C165.438 176.633 165.164 175.914 165.164 175.055ZM185.672 196.125L183.141 198.727V207H177.445V171H183.141V191.766L184.922 189.539L191.93 181.641H198.773L189.352 192.211L199.781 207H193.195L185.672 196.125ZM217.664 207C217.414 206.516 217.195 205.727 217.008 204.633C215.195 206.523 212.977 207.469 210.352 207.469C207.805 207.469 205.727 206.742 204.117 205.289C202.508 203.836 201.703 202.039 201.703 199.898C201.703 197.195 202.703 195.125 204.703 193.688C206.719 192.234 209.594 191.508 213.328 191.508H216.82V189.844C216.82 188.531 216.453 187.484 215.719 186.703C214.984 185.906 213.867 185.508 212.367 185.508C211.07 185.508 210.008 185.836 209.18 186.492C208.352 187.133 207.938 187.953 207.938 188.953H202.242C202.242 187.562 202.703 186.266 203.625 185.062C204.547 183.844 205.797 182.891 207.375 182.203C208.969 181.516 210.742 181.172 212.695 181.172C215.664 181.172 218.031 181.922 219.797 183.422C221.562 184.906 222.469 187 222.516 189.703V201.141C222.516 203.422 222.836 205.242 223.477 206.602V207H217.664ZM211.406 202.898C212.531 202.898 213.586 202.625 214.57 202.078C215.57 201.531 216.32 200.797 216.82 199.875V195.094H213.75C211.641 195.094 210.055 195.461 208.992 196.195C207.93 196.93 207.398 197.969 207.398 199.312C207.398 200.406 207.758 201.281 208.477 201.938C209.211 202.578 210.188 202.898 211.406 202.898ZM238.148 212.133C240.898 211.242 242.305 208.805 242.367 204.82V199.945C242.367 196.336 243.789 193.859 246.633 192.516C243.789 191.172 242.367 188.672 242.367 185.016V180.164C242.305 176.18 240.898 173.742 238.148 172.852L239.273 169.57C242.117 170.367 244.234 171.664 245.625 173.461C247.016 175.242 247.711 177.578 247.711 180.469V185.156C247.711 188.672 249.227 190.43 252.258 190.43V194.602C249.227 194.602 247.711 196.359 247.711 199.875V204.492C247.711 207.414 247.008 209.766 245.602 211.547C244.211 213.344 242.102 214.641 239.273 215.438L238.148 212.133Z" fill="white"/>
</svg>
