<svg width="255" height="222" viewBox="0 0 255 222" fill="none" xmlns="http://www.w3.org/2000/svg">
<rect x="55.5" y="2.5" width="145" height="145" fill="white" stroke="black" stroke-width="5"/>
<rect x="80.5" y="27.5" width="95" height="95" fill="black" stroke="black" stroke-width="5"/>
<path d="M8.45 176.6V188.8C8.45 189.267 8.33333 189.8 8.1 190.4C7.9 191 7.53333 191.533 7 192C7.5 192.467 7.86667 193 8.1 193.6C8.33333 194.2 8.45 194.733 8.45 195.2V207.95H11.2V211.55H5.6C5.33333 211.55 5.06667 211.433 4.8 211.2C4.56667 211 4.45 210.617 4.45 210.05V196.5C4.45 195.767 4.25 195.117 3.85 194.55C3.48333 193.983 2.98333 193.65 2.35 193.55V190.35C2.68333 190.35 2.98333 190.25 3.25 190.05C3.51667 189.85 3.73333 189.6 3.9 189.3C4.1 189 4.23333 188.7 4.3 188.4C4.4 188.067 4.45 187.767 4.45 187.5V174.5C4.45 173.867 4.6 173.467 4.9 173.3C5.2 173.1 5.43333 173 5.6 173H11.2V176.6H8.45ZM35.9535 210L25.6535 183.9H30.2035L38.4535 206.15L46.7535 183.9H50.9535L40.6535 210H35.9535ZM61.373 210.5C60.1397 210.5 58.9897 210.3 57.923 209.9C56.8564 209.467 55.923 208.883 55.123 208.15C54.3564 207.417 53.7397 206.567 53.273 205.6C52.8397 204.6 52.623 203.517 52.623 202.35C52.623 201.15 52.8897 200.067 53.423 199.1C53.9564 198.1 54.7064 197.25 55.673 196.55C56.673 195.85 57.8397 195.3 59.173 194.9C60.5397 194.5 62.023 194.3 63.623 194.3C64.8897 194.3 66.173 194.417 67.473 194.65C68.773 194.883 69.923 195.2 70.923 195.6V193.5C70.923 191.367 70.323 189.7 69.123 188.5C67.923 187.267 66.223 186.65 64.023 186.65C61.3897 186.65 58.623 187.667 55.723 189.7L54.273 186.85C57.6397 184.583 61.023 183.45 64.423 183.45C67.8564 183.45 70.523 184.367 72.423 186.2C74.3564 188.033 75.323 190.617 75.323 193.95V204.6C75.323 205.633 75.7897 206.167 76.723 206.2V210C76.2564 210.067 75.873 210.117 75.573 210.15C75.273 210.183 74.9564 210.2 74.623 210.2C73.7564 210.2 73.0564 209.95 72.523 209.45C72.023 208.917 71.723 208.283 71.623 207.55L71.523 205.7C70.3564 207.267 68.873 208.467 67.073 209.3C65.3064 210.1 63.4064 210.5 61.373 210.5ZM62.523 207.2C64.0897 207.2 65.5397 206.917 66.873 206.35C68.2397 205.75 69.273 204.967 69.973 204C70.6064 203.367 70.923 202.717 70.923 202.05V198.2C68.7897 197.367 66.573 196.95 64.273 196.95C62.073 196.95 60.273 197.417 58.873 198.35C57.5064 199.283 56.823 200.5 56.823 202C56.823 202.733 56.9564 203.417 57.223 204.05C57.523 204.683 57.923 205.233 58.423 205.7C58.9564 206.167 59.573 206.533 60.273 206.8C60.973 207.067 61.723 207.2 62.523 207.2ZM105.009 210H100.609V195.4C100.609 192.6 100.175 190.567 99.3086 189.3C98.4753 188.033 97.1919 187.4 95.4586 187.4C94.5586 187.4 93.6586 187.583 92.7586 187.95C91.8586 188.283 91.0086 188.75 90.2086 189.35C89.4086 189.95 88.7086 190.667 88.1086 191.5C87.5086 192.333 87.0586 193.25 86.7586 194.25V210H82.3586V183.9H86.3586V189.5C87.3919 187.667 88.8753 186.2 90.8086 185.1C92.7753 184 94.9086 183.45 97.2086 183.45C98.7086 183.45 99.9586 183.733 100.959 184.3C101.959 184.833 102.759 185.6 103.359 186.6C103.959 187.567 104.375 188.717 104.609 190.05C104.875 191.383 105.009 192.833 105.009 194.4V210ZM121.001 210.5C118.901 210.5 116.834 210.183 114.801 209.55C112.767 208.883 111.017 207.933 109.551 206.7L111.451 203.75C112.984 204.917 114.517 205.8 116.051 206.4C117.584 206.967 119.201 207.25 120.901 207.25C122.801 207.25 124.301 206.883 125.401 206.15C126.534 205.383 127.101 204.317 127.101 202.95C127.101 202.317 126.951 201.783 126.651 201.35C126.351 200.883 125.901 200.483 125.301 200.15C124.701 199.817 123.934 199.517 123.001 199.25C122.067 198.983 120.984 198.7 119.751 198.4C118.184 198 116.834 197.617 115.701 197.25C114.567 196.883 113.634 196.45 112.901 195.95C112.167 195.45 111.634 194.85 111.301 194.15C110.967 193.45 110.801 192.583 110.801 191.55C110.801 190.25 111.051 189.1 111.551 188.1C112.084 187.067 112.801 186.217 113.701 185.55C114.601 184.85 115.651 184.333 116.851 184C118.084 183.633 119.401 183.45 120.801 183.45C122.767 183.45 124.601 183.767 126.301 184.4C128.001 185.033 129.434 185.867 130.601 186.9L128.601 189.55C127.501 188.583 126.267 187.867 124.901 187.4C123.534 186.9 122.134 186.65 120.701 186.65C119.101 186.65 117.734 187 116.601 187.7C115.501 188.367 114.951 189.45 114.951 190.95C114.951 191.55 115.051 192.05 115.251 192.45C115.484 192.85 115.851 193.2 116.351 193.5C116.851 193.8 117.484 194.067 118.251 194.3C119.051 194.533 120.001 194.783 121.101 195.05C122.834 195.45 124.334 195.867 125.601 196.3C126.901 196.7 127.967 197.183 128.801 197.75C129.667 198.317 130.301 198.983 130.701 199.75C131.134 200.517 131.351 201.45 131.351 202.55C131.351 204.983 130.417 206.917 128.551 208.35C126.684 209.783 124.167 210.5 121.001 210.5ZM159.208 210H154.808V195.4C154.808 192.7 154.341 190.7 153.408 189.4C152.474 188.067 151.108 187.4 149.308 187.4C148.441 187.4 147.574 187.583 146.708 187.95C145.841 188.283 145.024 188.75 144.258 189.35C143.524 189.95 142.858 190.667 142.258 191.5C141.691 192.333 141.258 193.25 140.958 194.25V210H136.558V173.5H140.958V189.5C141.991 187.6 143.391 186.117 145.158 185.05C146.924 183.983 148.858 183.45 150.958 183.45C152.491 183.45 153.791 183.733 154.858 184.3C155.924 184.867 156.774 185.633 157.408 186.6C158.041 187.567 158.491 188.733 158.758 190.1C159.058 191.433 159.208 192.867 159.208 194.4V210ZM166.05 210V183.9H170.45V210H166.05ZM166.05 179V173.5H170.45V179H166.05ZM195.973 210L186.973 197.25L181.973 201.95V210H177.573V173.5H181.973V197.5L195.373 183.95H200.223L189.823 194.75L200.723 210H195.973ZM211.227 210.5C209.993 210.5 208.843 210.3 207.777 209.9C206.71 209.467 205.777 208.883 204.977 208.15C204.21 207.417 203.593 206.567 203.127 205.6C202.693 204.6 202.477 203.517 202.477 202.35C202.477 201.15 202.743 200.067 203.277 199.1C203.81 198.1 204.56 197.25 205.527 196.55C206.527 195.85 207.693 195.3 209.027 194.9C210.393 194.5 211.877 194.3 213.477 194.3C214.743 194.3 216.027 194.417 217.327 194.65C218.627 194.883 219.777 195.2 220.777 195.6V193.5C220.777 191.367 220.177 189.7 218.977 188.5C217.777 187.267 216.077 186.65 213.877 186.65C211.243 186.65 208.477 187.667 205.577 189.7L204.127 186.85C207.493 184.583 210.877 183.45 214.277 183.45C217.71 183.45 220.377 184.367 222.277 186.2C224.21 188.033 225.177 190.617 225.177 193.95V204.6C225.177 205.633 225.643 206.167 226.577 206.2V210C226.11 210.067 225.727 210.117 225.427 210.15C225.127 210.183 224.81 210.2 224.477 210.2C223.61 210.2 222.91 209.95 222.377 209.45C221.877 208.917 221.577 208.283 221.477 207.55L221.377 205.7C220.21 207.267 218.727 208.467 216.927 209.3C215.16 210.1 213.26 210.5 211.227 210.5ZM212.377 207.2C213.943 207.2 215.393 206.917 216.727 206.35C218.093 205.75 219.127 204.967 219.827 204C220.46 203.367 220.777 202.717 220.777 202.05V198.2C218.643 197.367 216.427 196.95 214.127 196.95C211.927 196.95 210.127 197.417 208.727 198.35C207.36 199.283 206.677 200.5 206.677 202C206.677 202.733 206.81 203.417 207.077 204.05C207.377 204.683 207.777 205.233 208.277 205.7C208.81 206.167 209.427 206.533 210.127 206.8C210.827 207.067 211.577 207.2 212.377 207.2ZM243.659 176.6V173H249.259C249.425 173 249.659 173.1 249.959 173.3C250.259 173.467 250.409 173.867 250.409 174.5V187.5C250.409 187.767 250.442 188.067 250.509 188.4C250.609 188.7 250.742 189 250.909 189.3C251.109 189.6 251.325 189.85 251.559 190.05C251.825 190.25 252.142 190.35 252.509 190.35V193.55C251.842 193.65 251.325 193.983 250.959 194.55C250.592 195.117 250.409 195.767 250.409 196.5V210.05C250.409 210.617 250.275 211 250.009 211.2C249.742 211.433 249.492 211.55 249.259 211.55H243.659V207.95H246.409V195.2C246.409 194.733 246.509 194.2 246.709 193.6C246.942 193 247.325 192.467 247.859 192C247.325 191.533 246.942 191 246.709 190.4C246.509 189.8 246.409 189.267 246.409 188.8V176.6H243.659Z" fill="black"/>
<path d="M92.2656 76.2109L106.094 81.4609V87.1562L86.4766 78.4141V73.8906L106.094 65.1719V70.8672L92.2656 76.2109ZM162.766 76.0938L148.281 70.7734V65.1719L168.531 73.8906V78.4141L148.281 87.1328V81.5312L162.766 76.0938Z" fill="white"/>
<path d="M122.378 58.5537L119.131 59.0664L127.09 82.1621L127.896 84.9697H128.042L128.848 82.1621L136.782 59.042L133.584 58.5537V55.4531H144.79V58.5537L141.934 58.9443L130.02 91H125.894L113.979 58.9443L111.147 58.5537V55.4531H122.378V58.5537Z" fill="white"/>
</svg>
