<svg width="150" height="150" viewBox="0 0 150 150" fill="none" xmlns="http://www.w3.org/2000/svg">
<rect x="2.5" y="2.5" width="145" height="145" fill="white" stroke="black" stroke-width="5"/>
<rect x="27.5" y="27.5" width="95" height="95" fill="black" stroke="black" stroke-width="5"/>
<path d="M39.2656 76.2109L53.0938 81.4609V87.1562L33.4766 78.4141V73.8906L53.0938 65.1719V70.8672L39.2656 76.2109ZM109.766 76.0938L95.2812 70.7734V65.1719L115.531 73.8906V78.4141L95.2812 87.1328V81.5312L109.766 76.0938Z" fill="white"/>
<path d="M69.3779 58.5537L66.1309 59.0664L74.0898 82.1621L74.8955 84.9697H75.042L75.8477 82.1621L83.7822 59.042L80.584 58.5537V55.4531H91.79V58.5537L88.9336 58.9443L77.0195 91H72.8936L60.9795 58.9443L58.1475 58.5537V55.4531H69.3779V58.5537Z" fill="white"/>
</svg>
